<?xml version="1.0" encoding="UTF-8" standalone="no"?>
<svg
   xmlns:dc="http://purl.org/dc/elements/1.1/"
   xmlns:cc="http://creativecommons.org/ns#"
   xmlns:rdf="http://www.w3.org/1999/02/22-rdf-syntax-ns#"
   xmlns:svg="http://www.w3.org/2000/svg"
   xmlns="http://www.w3.org/2000/svg"
   viewBox="0 0 203.78667 231.03999"
   height="231.03999"
   width="203.78667"
   xml:space="preserve"
   id="svg2"
   version="1.1"><metadata
     id="metadata8"><rdf:RDF><cc:Work
         rdf:about=""><dc:format>image/svg+xml</dc:format><dc:type
           rdf:resource="http://purl.org/dc/dcmitype/StillImage" /></cc:Work></rdf:RDF></metadata><defs
     id="defs6"><clipPath
       id="clipPath20"
       clipPathUnits="userSpaceOnUse"><path
         id="path18"
         d="M 0,0 H 1528 V 1732.8 H 0 Z" /></clipPath></defs><g
     transform="matrix(1.3333333,0,0,-1.3333333,0,231.04)"
     id="g10"><g
       transform="scale(0.1)"
       id="g12"><g
         id="g14"><g
           clip-path="url(#clipPath20)"
           id="g16"><path
             id="path22"
             style="fill:#231f20;fill-opacity:1;fill-rule:nonzero;stroke:none"
             d="m 1521.22,1725.27 c 9.22,0.49 -1516.05594,1.12 -1516.05594,1.12 L 773.344,962.594 1521.22,1725.27" /><path
             id="path24"
             style="fill:#ffffff;fill-opacity:1;fill-rule:nonzero;stroke:none"
             d="m 4.61719,1721.88 c 0,0 7.75781,-680.05 7.85941,-687.4 C 19.1836,542.77 295.598,89.4805 774.477,6.51953 L 771.41,959.254 4.61719,1721.88" /><path
             id="path26"
             style="fill:none;stroke:#231f20;stroke-width:8.98099995;stroke-linecap:butt;stroke-linejoin:miter;stroke-miterlimit:4;stroke-dasharray:none;stroke-opacity:1"
             d="m 4.61719,1721.88 c 0,0 7.75781,-680.05 7.85941,-687.4 C 19.1836,542.77 295.598,89.4805 774.477,6.51953 L 771.41,959.254 Z" /><path
             id="path28"
             style="fill:#d22027;fill-opacity:1;fill-rule:nonzero;stroke:none"
             d="M 773.422,957.324 1520.02,1723 c 2.31,0.89 -0.94,-525.82 3.57,-708.11 C 1535.08,551.941 1217.59,113.539 774.605,5.71094 L 773.422,957.324" /><path
             id="path30"
             style="fill:none;stroke:#231f20;stroke-width:8.98099995;stroke-linecap:butt;stroke-linejoin:miter;stroke-miterlimit:4;stroke-dasharray:none;stroke-opacity:1"
             d="M 773.422,957.324 1520.02,1723 c 2.31,0.89 -0.94,-525.82 3.57,-708.11 11.49,-462.949 -306,-901.351 -748.985,-1009.17906 z" /><path
             id="path32"
             style="fill:none;stroke:#231f20;stroke-width:2.24499989;stroke-linecap:butt;stroke-linejoin:miter;stroke-miterlimit:4;stroke-dasharray:none;stroke-opacity:1"
             d="m 928.57,1163.4 -59.902,-0.52" /><path
             id="path34"
             style="fill:#ffffff;fill-opacity:1;fill-rule:nonzero;stroke:none"
             d="m 928.766,1146.81 -0.848,70.5 -313.992,-2.71 0.859,-70.5 313.981,2.71" /><path
             id="path36"
             style="fill:none;stroke:#231f20;stroke-width:4.48999977;stroke-linecap:butt;stroke-linejoin:miter;stroke-miterlimit:4;stroke-dasharray:none;stroke-opacity:1"
             d="m 928.766,1146.81 -0.848,70.5 -313.992,-2.71 0.859,-70.5 z" /><path
             id="path38"
             style="fill:#ffffff;fill-opacity:1;fill-rule:nonzero;stroke:none"
             d="m 911.129,1578.01 -1.211,99.53 -41.145,-0.38 v -40.05 l -30.625,-0.13 0.625,39.96 -49.375,-0.44 v -36.96 l -41.238,-0.24 0.012,36.82 -50.649,-0.39 -0.625,-37.55 -33.75,-0.19 0.012,37.45 -38.305,-0.37 1.211,-99.53 285.063,2.47" /><path
             id="path40"
             style="fill:none;stroke:#231f20;stroke-width:4.48999977;stroke-linecap:butt;stroke-linejoin:miter;stroke-miterlimit:4;stroke-dasharray:none;stroke-opacity:1"
             d="m 911.129,1578.01 -1.211,99.53 -41.145,-0.38 v -40.05 l -30.625,-0.13 0.625,39.96 -49.375,-0.44 v -36.96 l -41.238,-0.24 0.012,36.82 -50.649,-0.39 -0.625,-37.55 -33.75,-0.19 0.012,37.45 -38.305,-0.37 1.211,-99.53 z" /><path
             id="path42"
             style="fill:#ffffff;fill-opacity:1;fill-rule:nonzero;stroke:none"
             d="m 927.855,1221.46 -29.675,61.95 -256.137,-2.21 -24.035,-62.42 309.847,2.68" /><path
             id="path44"
             style="fill:none;stroke:#231f20;stroke-width:4.48999977;stroke-linecap:butt;stroke-linejoin:miter;stroke-miterlimit:4;stroke-dasharray:none;stroke-opacity:1"
             d="m 927.855,1221.46 -29.675,61.95 -256.137,-2.21 -24.035,-62.42 z" /><path
             id="path46"
             style="fill:#ffffff;fill-opacity:1;fill-rule:nonzero;stroke:none"
             d="m 882.613,1544.58 15.516,-257.02 -247.824,-6.29 9.211,261.38 223.097,1.93" /><path
             id="path48"
             style="fill:none;stroke:#231f20;stroke-width:4.48999977;stroke-linecap:butt;stroke-linejoin:miter;stroke-miterlimit:4;stroke-dasharray:none;stroke-opacity:1"
             d="m 882.613,1544.58 15.516,-257.02 -247.824,-6.29 9.211,261.38 z" /><path
             id="path50"
             style="fill:#ffffff;fill-opacity:1;fill-rule:nonzero;stroke:none"
             d="m 882.613,1544.58 28.516,33.43 -285.063,-2.47 33.45,-32.89 223.097,1.93" /><path
             id="path52"
             style="fill:none;stroke:#231f20;stroke-width:4.48999977;stroke-linecap:butt;stroke-linejoin:miter;stroke-miterlimit:4;stroke-dasharray:none;stroke-opacity:1"
             d="m 882.613,1544.58 28.516,33.43 -285.063,-2.47 33.45,-32.89 z" /><path
             id="path54"
             style="fill:#231f20;fill-opacity:1;fill-rule:nonzero;stroke:none"
             d="m 798.422,1332.32 -1.356,111.98 c -0.605,49.76 -58.742,49.26 -61.972,-0.54 -0.266,-4.14 1.367,-111.97 1.367,-111.97 l 61.961,0.53" /><path
             id="path56"
             style="fill:none;stroke:#231f20;stroke-width:2.24499989;stroke-linecap:butt;stroke-linejoin:miter;stroke-miterlimit:4;stroke-dasharray:none;stroke-opacity:1"
             d="m 657.777,1515.68 c 2.09,-2.06 227.258,-0.11 227.227,1.96" /><path
             id="path58"
             style="fill:none;stroke:#231f20;stroke-width:2.24499989;stroke-linecap:butt;stroke-linejoin:miter;stroke-miterlimit:4;stroke-dasharray:none;stroke-opacity:1"
             d="m 658.129,1486.64 45.449,0.4" /><path
             id="path60"
             style="fill:none;stroke:#231f20;stroke-width:2.24499989;stroke-linecap:butt;stroke-linejoin:miter;stroke-miterlimit:4;stroke-dasharray:none;stroke-opacity:1"
             d="m 654.379,1455.51 37.18,0.32" /><path
             id="path62"
             style="fill:none;stroke:#231f20;stroke-width:2.24499989;stroke-linecap:butt;stroke-linejoin:miter;stroke-miterlimit:4;stroke-dasharray:none;stroke-opacity:1"
             d="m 656.832,1424.42 26.844,0.23" /><path
             id="path64"
             style="fill:none;stroke:#231f20;stroke-width:2.24499989;stroke-linecap:butt;stroke-linejoin:miter;stroke-miterlimit:4;stroke-dasharray:none;stroke-opacity:1"
             d="m 761.5,1481.32 c 0,0 -8.496,18.59 -8.527,20.66 -0.02,2.08 33.058,0.29 33.058,0.29 l -12.148,-20.84" /><path
             id="path66"
             style="fill:none;stroke:#231f20;stroke-width:2.24499989;stroke-linecap:butt;stroke-linejoin:miter;stroke-miterlimit:4;stroke-dasharray:none;stroke-opacity:1"
             d="m 747.113,1474.97 -8.418,12.37" /><path
             id="path68"
             style="fill:none;stroke:#231f20;stroke-width:2.24499989;stroke-linecap:butt;stroke-linejoin:miter;stroke-miterlimit:4;stroke-dasharray:none;stroke-opacity:1"
             d="m 784.293,1475.29 c -0.031,2.08 8.086,14.59 8.086,14.59" /><path
             id="path70"
             style="fill:none;stroke:#231f20;stroke-width:2.24499989;stroke-linecap:butt;stroke-linejoin:miter;stroke-miterlimit:4;stroke-dasharray:none;stroke-opacity:1"
             d="m 792.66,1467.07 c -0.027,2.07 14.387,6.35 14.387,6.35" /><path
             id="path72"
             style="fill:none;stroke:#231f20;stroke-width:2.24499989;stroke-linecap:butt;stroke-linejoin:miter;stroke-miterlimit:4;stroke-dasharray:none;stroke-opacity:1"
             d="m 741.043,1464.55 -12.523,10.27" /><path
             id="path74"
             style="fill:none;stroke:#231f20;stroke-width:2.24499989;stroke-linecap:butt;stroke-linejoin:miter;stroke-miterlimit:4;stroke-dasharray:none;stroke-opacity:1"
             d="m 794.879,1454.65 14.453,0.13" /><path
             id="path76"
             style="fill:none;stroke:#231f20;stroke-width:2.24499989;stroke-linecap:butt;stroke-linejoin:miter;stroke-miterlimit:4;stroke-dasharray:none;stroke-opacity:1"
             d="m 737.035,1454.15 -14.488,1.95" /><path
             id="path78"
             style="fill:none;stroke:#231f20;stroke-width:2.24499989;stroke-linecap:butt;stroke-linejoin:miter;stroke-miterlimit:4;stroke-dasharray:none;stroke-opacity:1"
             d="m 638.109,1264.58 55.774,0.48" /><path
             id="path80"
             style="fill:none;stroke:#231f20;stroke-width:2.24499989;stroke-linecap:butt;stroke-linejoin:miter;stroke-miterlimit:4;stroke-dasharray:none;stroke-opacity:1"
             d="m 630.023,1250 35.118,0.29" /><path
             id="path82"
             style="fill:none;stroke:#231f20;stroke-width:2.24499989;stroke-linecap:butt;stroke-linejoin:miter;stroke-miterlimit:4;stroke-dasharray:none;stroke-opacity:1"
             d="m 675.094,1281.49 -3.926,-16.63 -20.664,-0.17 -6.02,-14.57 12.395,0.11 0.207,-16.59 -33.059,-0.29" /><path
             id="path84"
             style="fill:none;stroke:#231f20;stroke-width:2.24499989;stroke-linecap:butt;stroke-linejoin:miter;stroke-miterlimit:4;stroke-dasharray:none;stroke-opacity:1"
             d="m 906.629,1268.97 -47.524,-0.41" /><path
             id="path86"
             style="fill:none;stroke:#231f20;stroke-width:2.24499989;stroke-linecap:butt;stroke-linejoin:miter;stroke-miterlimit:4;stroke-dasharray:none;stroke-opacity:1"
             d="m 684.332,1540.79 -1.77,-24.9" /><path
             id="path88"
             style="fill:none;stroke:#231f20;stroke-width:2.24499989;stroke-linecap:butt;stroke-linejoin:miter;stroke-miterlimit:4;stroke-dasharray:none;stroke-opacity:1"
             d="M 701.188,1513.98 699.34,1495.3" /><path
             id="path90"
             style="fill:none;stroke:#231f20;stroke-width:2.24499989;stroke-linecap:butt;stroke-linejoin:miter;stroke-miterlimit:4;stroke-dasharray:none;stroke-opacity:1"
             d="m 678.812,1484.75 -1.707,-29.05" /><path
             id="path92"
             style="fill:none;stroke:#231f20;stroke-width:2.24499989;stroke-linecap:butt;stroke-linejoin:miter;stroke-miterlimit:4;stroke-dasharray:none;stroke-opacity:1"
             d="m 666.043,1515.75 -1.684,-31.13" /><path
             id="path94"
             style="fill:none;stroke:#231f20;stroke-width:2.24499989;stroke-linecap:butt;stroke-linejoin:miter;stroke-miterlimit:4;stroke-dasharray:none;stroke-opacity:1"
             d="m 664.715,1455.6 -1.672,-33.2" /><path
             id="path96"
             style="fill:none;stroke:#231f20;stroke-width:2.24499989;stroke-linecap:butt;stroke-linejoin:miter;stroke-miterlimit:4;stroke-dasharray:none;stroke-opacity:1"
             d="m 638.465,1235.55 -3.934,-16.62" /><path
             id="path98"
             style="fill:none;stroke:#231f20;stroke-width:2.24499989;stroke-linecap:butt;stroke-linejoin:miter;stroke-miterlimit:4;stroke-dasharray:none;stroke-opacity:1"
             d="m 881.684,1281.2 6.347,-12.39 -10.32,-0.09 6.336,-12.38 12.402,0.1 6.367,-14.46 12.395,0.11 -37.207,1.75" /><path
             id="path100"
             style="fill:none;stroke:#231f20;stroke-width:2.24499989;stroke-linecap:butt;stroke-linejoin:miter;stroke-miterlimit:4;stroke-dasharray:none;stroke-opacity:1"
             d="m 921.539,1231.77 -64.035,-0.55" /><path
             id="path102"
             style="fill:none;stroke:#231f20;stroke-width:2.24499989;stroke-linecap:butt;stroke-linejoin:miter;stroke-miterlimit:4;stroke-dasharray:none;stroke-opacity:1"
             d="m 616.195,1198.03 55.774,0.48" /><path
             id="path104"
             style="fill:none;stroke:#231f20;stroke-width:2.24499989;stroke-linecap:butt;stroke-linejoin:miter;stroke-miterlimit:4;stroke-dasharray:none;stroke-opacity:1"
             d="m 614.277,1185.57 33.051,0.29" /><path
             id="path106"
             style="fill:none;stroke:#231f20;stroke-width:2.24499989;stroke-linecap:butt;stroke-linejoin:miter;stroke-miterlimit:4;stroke-dasharray:none;stroke-opacity:1"
             d="m 614.484,1168.98 28.918,0.25" /><path
             id="path108"
             style="fill:none;stroke:#231f20;stroke-width:2.24499989;stroke-linecap:butt;stroke-linejoin:miter;stroke-miterlimit:4;stroke-dasharray:none;stroke-opacity:1"
             d="m 928.09,1202.79 -66.102,-0.56" /><path
             id="path110"
             style="fill:none;stroke:#231f20;stroke-width:2.24499989;stroke-linecap:butt;stroke-linejoin:miter;stroke-miterlimit:4;stroke-dasharray:none;stroke-opacity:1"
             d="m 926.273,1182.04 -39.246,-0.33" /><path
             id="path112"
             style="fill:#12ab4a;fill-opacity:1;fill-rule:nonzero;stroke:none"
             d="m 399.645,1367.88 c 7.855,10.79 2.046,32.65 -8.747,17.53 -408.1714,-571.906 -47.39,-949.351 521.52,-1094.609 0,0 -1.691,20.168 -4.375,20.699 -272.246,53.648 -1012.691,363.699 -508.398,1056.38" /><path
             id="path114"
             style="fill:none;stroke:#231f20;stroke-width:10;stroke-linecap:butt;stroke-linejoin:miter;stroke-miterlimit:4;stroke-dasharray:none;stroke-opacity:1"
             d="m 399.645,1367.88 c 7.855,10.79 2.046,32.65 -8.747,17.53 -408.1714,-571.906 -47.39,-949.351 521.52,-1094.609 0,0 -1.691,20.168 -4.375,20.699 -272.246,53.648 -1012.691,363.699 -508.398,1056.38 z" /><path
             id="path116"
             style="fill:#12ab4a;fill-opacity:1;fill-rule:nonzero;stroke:none"
             d="m 568.285,1540.27 c 1.762,3.91 -170.254,-51.02 -176.082,-143.55 -2.867,-45.52 113.051,3.81 176.082,143.55" /><path
             id="path118"
             style="fill:none;stroke:#231f20;stroke-width:10;stroke-linecap:butt;stroke-linejoin:miter;stroke-miterlimit:4;stroke-dasharray:none;stroke-opacity:1"
             d="m 568.285,1540.27 c 1.762,3.91 -170.254,-51.02 -176.082,-143.55 -2.867,-45.52 113.051,3.81 176.082,143.55 z" /><path
             id="path120"
             style="fill:#12ab4a;fill-opacity:1;fill-rule:nonzero;stroke:none"
             d="m 380.699,1013.96 c 1.004,4.17 -157.719,-81.929 -146.308,-173.999 5.613,-45.285 110.297,24.844 146.308,173.999" /><path
             id="path122"
             style="fill:none;stroke:#231f20;stroke-width:10;stroke-linecap:butt;stroke-linejoin:miter;stroke-miterlimit:4;stroke-dasharray:none;stroke-opacity:1"
             d="m 380.699,1013.96 c 1.004,4.17 -157.719,-81.929 -146.308,-173.999 5.613,-45.285 110.297,24.844 146.308,173.999 z" /><path
             id="path124"
             style="fill:#12ab4a;fill-opacity:1;fill-rule:nonzero;stroke:none"
             d="m 412.906,914.043 c 1.153,4.129 -160.59,-76.148 -152.5,-168.555 3.981,-45.457 111.133,20.821 152.5,168.555" /><path
             id="path126"
             style="fill:none;stroke:#231f20;stroke-width:10;stroke-linecap:butt;stroke-linejoin:miter;stroke-miterlimit:4;stroke-dasharray:none;stroke-opacity:1"
             d="m 412.906,914.043 c 1.153,4.129 -160.59,-76.148 -152.5,-168.555 3.981,-45.457 111.133,20.821 152.5,168.555 z" /><path
             id="path128"
             style="fill:#12ab4a;fill-opacity:1;fill-rule:nonzero;stroke:none"
             d="m 434.566,841.984 c 0.301,4.278 -141.867,-107.168 -115.367,-196.105 13.031,-43.75 104.582,42.922 115.367,196.105" /><path
             id="path130"
             style="fill:none;stroke:#231f20;stroke-width:10;stroke-linecap:butt;stroke-linejoin:miter;stroke-miterlimit:4;stroke-dasharray:none;stroke-opacity:1"
             d="m 434.566,841.984 c 0.301,4.278 -141.867,-107.168 -115.367,-196.105 13.031,-43.75 104.582,42.922 115.367,196.105 z" /><path
             id="path132"
             style="fill:#12ab4a;fill-opacity:1;fill-rule:nonzero;stroke:none"
             d="m 486.426,763.293 c -0.203,4.285 -128.25,-123.223 -91.528,-208.453 18.067,-41.918 98.778,55 91.528,208.453" /><path
             id="path134"
             style="fill:none;stroke:#231f20;stroke-width:10;stroke-linecap:butt;stroke-linejoin:miter;stroke-miterlimit:4;stroke-dasharray:none;stroke-opacity:1"
             d="m 486.426,763.293 c -0.203,4.285 -128.25,-123.223 -91.528,-208.453 18.067,-41.918 98.778,55 91.528,208.453 z" /><path
             id="path136"
             style="fill:#12ab4a;fill-opacity:1;fill-rule:nonzero;stroke:none"
             d="m 531.637,700.301 c -1.168,4.129 -83.664,-130.219 -42.051,-213.172 20.469,-40.809 82.894,68.883 42.051,213.172" /><path
             id="path138"
             style="fill:none;stroke:#231f20;stroke-width:10;stroke-linecap:butt;stroke-linejoin:miter;stroke-miterlimit:4;stroke-dasharray:none;stroke-opacity:1"
             d="m 531.637,700.301 c -1.168,4.129 -83.664,-130.219 -42.051,-213.172 20.469,-40.809 82.894,68.883 42.051,213.172 z" /><path
             id="path140"
             style="fill:#12ab4a;fill-opacity:1;fill-rule:nonzero;stroke:none"
             d="m 604.902,643.191 c -1.172,4.129 -80.32,-141.019 -25.218,-215.652 9.175,-12.43 74.078,43.391 25.218,215.652" /><path
             id="path142"
             style="fill:none;stroke:#231f20;stroke-width:10;stroke-linecap:butt;stroke-linejoin:miter;stroke-miterlimit:4;stroke-dasharray:none;stroke-opacity:1"
             d="m 604.902,643.191 c -1.172,4.129 -80.32,-141.019 -25.218,-215.652 9.175,-12.43 74.078,43.391 25.218,215.652 z" /><path
             id="path144"
             style="fill:#12ab4a;fill-opacity:1;fill-rule:nonzero;stroke:none"
             d="m 385.832,1128.63 c 1.371,4.06 -164.48,-67.33 -161.359,-160.032 1.539,-45.598 112.117,14.781 161.359,160.032" /><path
             id="path146"
             style="fill:none;stroke:#231f20;stroke-width:10;stroke-linecap:butt;stroke-linejoin:miter;stroke-miterlimit:4;stroke-dasharray:none;stroke-opacity:1"
             d="m 385.832,1128.63 c 1.371,4.06 -164.48,-67.33 -161.359,-160.032 1.539,-45.598 112.117,14.781 161.359,160.032 z" /><path
             id="path148"
             style="fill:#12ab4a;fill-opacity:1;fill-rule:nonzero;stroke:none"
             d="m 457.324,1251.07 c 2.238,3.65 -175.386,-29.02 -192.801,-120.03 -8.57,-44.77 112.676,-10.54 192.801,120.03" /><path
             id="path150"
             style="fill:none;stroke:#231f20;stroke-width:10;stroke-linecap:butt;stroke-linejoin:miter;stroke-miterlimit:4;stroke-dasharray:none;stroke-opacity:1"
             d="m 457.324,1251.07 c 2.238,3.65 -175.386,-29.02 -192.801,-120.03 -8.57,-44.77 112.676,-10.54 192.801,120.03 z" /><path
             id="path152"
             style="fill:#12ab4a;fill-opacity:1;fill-rule:nonzero;stroke:none"
             d="m 518.961,1372.98 c 2.516,3.46 -177.152,-15.24 -201.574,-104.59 -12.016,-43.95 111.551,-19.3 201.574,104.59" /><path
             id="path154"
             style="fill:none;stroke:#231f20;stroke-width:10;stroke-linecap:butt;stroke-linejoin:miter;stroke-miterlimit:4;stroke-dasharray:none;stroke-opacity:1"
             d="m 518.961,1372.98 c 2.516,3.46 -177.152,-15.24 -201.574,-104.59 -12.016,-43.95 111.551,-19.3 201.574,104.59 z" /><path
             id="path156"
             style="fill:#12ab4a;fill-opacity:1;fill-rule:nonzero;stroke:none"
             d="m 309.602,1500.37 c -1.758,3.91 -73.957,-162.09 -8.629,-227.91 32.132,-32.37 71.578,87.68 8.629,227.91" /><path
             id="path158"
             style="fill:none;stroke:#231f20;stroke-width:10;stroke-linecap:butt;stroke-linejoin:miter;stroke-miterlimit:4;stroke-dasharray:none;stroke-opacity:1"
             d="m 309.602,1500.37 c -1.758,3.91 -73.957,-162.09 -8.629,-227.91 32.132,-32.37 71.578,87.68 8.629,227.91 z" /><path
             id="path160"
             style="fill:#12ab4a;fill-opacity:1;fill-rule:nonzero;stroke:none"
             d="m 228.102,1365.39 c -2.051,3.77 -61.231,-167.39 8.949,-227.95 34.523,-29.8 64.594,92.99 -8.949,227.95" /><path
             id="path162"
             style="fill:none;stroke:#231f20;stroke-width:10;stroke-linecap:butt;stroke-linejoin:miter;stroke-miterlimit:4;stroke-dasharray:none;stroke-opacity:1"
             d="m 228.102,1365.39 c -2.051,3.77 -61.231,-167.39 8.949,-227.95 34.523,-29.8 64.594,92.99 -8.949,227.95 z" /><path
             id="path164"
             style="fill:#12ab4a;fill-opacity:1;fill-rule:nonzero;stroke:none"
             d="m 163.906,1198.01 c -2.57,3.44 -36.586,-174.58 41.504,-224.416 38.414,-24.516 50.57,101.396 -41.504,224.416" /><path
             id="path166"
             style="fill:none;stroke:#231f20;stroke-width:10;stroke-linecap:butt;stroke-linejoin:miter;stroke-miterlimit:4;stroke-dasharray:none;stroke-opacity:1"
             d="m 163.906,1198.01 c -2.57,3.44 -36.586,-174.58 41.504,-224.416 38.414,-24.516 50.57,101.396 -41.504,224.416 z" /><path
             id="path168"
             style="fill:#12ab4a;fill-opacity:1;fill-rule:nonzero;stroke:none"
             d="m 112.102,1010.89 c 17.89,-15.656 -12.27,-153.085 114.207,-197.609 42.933,-15.109 -2.774,100.098 -114.207,197.609" /><path
             id="path170"
             style="fill:none;stroke:#231f20;stroke-width:10;stroke-linecap:butt;stroke-linejoin:miter;stroke-miterlimit:4;stroke-dasharray:none;stroke-opacity:1"
             d="m 112.102,1010.89 c 17.89,-15.656 -12.27,-153.085 114.207,-197.609 42.933,-15.109 -2.774,100.098 -114.207,197.609 z" /><path
             id="path172"
             style="fill:#12ab4a;fill-opacity:1;fill-rule:nonzero;stroke:none"
             d="m 107.906,835.742 c -3.832,1.906 65.762,-181.57 185.946,-159.601 -3.618,-0.672 10.074,62.195 -185.946,159.601" /><path
             id="path174"
             style="fill:none;stroke:#231f20;stroke-width:10;stroke-linecap:butt;stroke-linejoin:miter;stroke-miterlimit:4;stroke-dasharray:none;stroke-opacity:1"
             d="m 107.906,835.742 c -3.832,1.906 65.762,-181.57 185.946,-159.601 -3.618,-0.672 10.074,62.195 -185.946,159.601 z" /><path
             id="path176"
             style="fill:#12ab4a;fill-opacity:1;fill-rule:nonzero;stroke:none"
             d="m 135.305,671.629 c -4.246,0.5 123.047,-148.707 228.578,-87.168 -3.18,-1.852 -11.52,62.039 -228.578,87.168" /><path
             id="path178"
             style="fill:none;stroke:#231f20;stroke-width:10;stroke-linecap:butt;stroke-linejoin:miter;stroke-miterlimit:4;stroke-dasharray:none;stroke-opacity:1"
             d="m 135.305,671.629 c -4.246,0.5 123.047,-148.707 228.578,-87.168 -3.18,-1.852 -11.52,62.039 -228.578,87.168 z" /><path
             id="path180"
             style="fill:#12ab4a;fill-opacity:1;fill-rule:nonzero;stroke:none"
             d="m 197.359,556.781 c -4.261,-0.293 147.832,-123.91 240.395,-44.109 -2.781,-2.402 -22.539,58.937 -240.395,44.109" /><path
             id="path182"
             style="fill:none;stroke:#231f20;stroke-width:10;stroke-linecap:butt;stroke-linejoin:miter;stroke-miterlimit:4;stroke-dasharray:none;stroke-opacity:1"
             d="m 197.359,556.781 c -4.261,-0.293 147.832,-123.91 240.395,-44.109 -2.781,-2.402 -22.539,58.937 -240.395,44.109 z" /><path
             id="path184"
             style="fill:#12ab4a;fill-opacity:1;fill-rule:nonzero;stroke:none"
             d="m 291.227,460.672 c -4.176,-0.902 163.902,-101.453 244.085,-9.133 -2.41,-2.777 -30.703,55.121 -244.085,9.133" /><path
             id="path186"
             style="fill:none;stroke:#231f20;stroke-width:10;stroke-linecap:butt;stroke-linejoin:miter;stroke-miterlimit:4;stroke-dasharray:none;stroke-opacity:1"
             d="m 291.227,460.672 c -4.176,-0.902 163.902,-101.453 244.085,-9.133 -2.41,-2.777 -30.703,55.121 -244.085,9.133 z" /><path
             id="path188"
             style="fill:#12ab4a;fill-opacity:1;fill-rule:nonzero;stroke:none"
             d="m 380.348,367.859 c -4,-1.5 176.746,-76.558 242.695,26.52 -1.984,-3.109 -38.328,50.09 -242.695,-26.52" /><path
             id="path190"
             style="fill:none;stroke:#231f20;stroke-width:10;stroke-linecap:butt;stroke-linejoin:miter;stroke-miterlimit:4;stroke-dasharray:none;stroke-opacity:1"
             d="m 380.348,367.859 c -4,-1.5 176.746,-76.558 242.695,26.52 -1.984,-3.109 -38.328,50.09 -242.695,-26.52 z" /><path
             id="path192"
             style="fill:#12ab4a;fill-opacity:1;fill-rule:nonzero;stroke:none"
             d="m 1131.74,1372.09 c -8.14,10.64 -2.9,32.61 8.29,17.69 422.82,-564.096 71.88,-948.21 -493.151,-1104.1 0,0 1.18,20.199 3.848,20.769 270.793,58.742 1003.043,382.61 481.013,1065.641" /><path
             id="path194"
             style="fill:none;stroke:#231f20;stroke-width:10;stroke-linecap:butt;stroke-linejoin:miter;stroke-miterlimit:4;stroke-dasharray:none;stroke-opacity:1"
             d="m 1131.74,1372.09 c -8.14,10.64 -2.9,32.61 8.29,17.69 422.82,-564.096 71.88,-948.21 -493.151,-1104.1 0,0 1.18,20.199 3.848,20.769 270.793,58.742 1003.043,382.61 481.013,1065.641 z" /><path
             id="path196"
             style="fill:#12ab4a;fill-opacity:1;fill-rule:nonzero;stroke:none"
             d="m 958.688,1541.28 c -1.856,3.87 171.522,-47.82 179.732,-140.21 4.05,-45.46 -113.11,1.69 -179.732,140.21" /><path
             id="path198"
             style="fill:none;stroke:#231f20;stroke-width:10;stroke-linecap:butt;stroke-linejoin:miter;stroke-miterlimit:4;stroke-dasharray:none;stroke-opacity:1"
             d="m 958.688,1541.28 c -1.856,3.87 171.522,-47.82 179.732,-140.21 4.05,-45.46 -113.11,1.69 -179.732,140.21 z" /><path
             id="path200"
             style="fill:#12ab4a;fill-opacity:1;fill-rule:nonzero;stroke:none"
             d="m 1159.81,1018.63 c -1.11,4.15 159.8,-78.95 150.76,-171.212 -4.44,-45.387 -110.92,22.77 -150.76,171.212" /><path
             id="path202"
             style="fill:none;stroke:#231f20;stroke-width:10;stroke-linecap:butt;stroke-linejoin:miter;stroke-miterlimit:4;stroke-dasharray:none;stroke-opacity:1"
             d="m 1159.81,1018.63 c -1.11,4.15 159.8,-78.95 150.76,-171.212 -4.44,-45.387 -110.92,22.77 -150.76,171.212 z" /><path
             id="path204"
             style="fill:#12ab4a;fill-opacity:1;fill-rule:nonzero;stroke:none"
             d="m 1130.19,918.133 c -1.27,4.105 162.51,-73.117 156.81,-165.653 -2.81,-45.531 -111.64,18.731 -156.81,165.653" /><path
             id="path206"
             style="fill:none;stroke:#231f20;stroke-width:10;stroke-linecap:butt;stroke-linejoin:miter;stroke-miterlimit:4;stroke-dasharray:none;stroke-opacity:1"
             d="m 1130.19,918.133 c -1.27,4.105 162.51,-73.117 156.81,-165.653 -2.81,-45.531 -111.64,18.731 -156.81,165.653 z" /><path
             id="path208"
             style="fill:#12ab4a;fill-opacity:1;fill-rule:nonzero;stroke:none"
             d="m 1110.39,845.68 c -0.4,4.273 144.6,-104.477 120.41,-193.891 -11.92,-43.98 -105.67,40.949 -120.41,193.891" /><path
             id="path210"
             style="fill:none;stroke:#231f20;stroke-width:10;stroke-linecap:butt;stroke-linejoin:miter;stroke-miterlimit:4;stroke-dasharray:none;stroke-opacity:1"
             d="m 1110.39,845.68 c -0.4,4.273 144.6,-104.477 120.41,-193.891 -11.92,-43.98 -105.67,40.949 -120.41,193.891 z" /><path
             id="path212"
             style="fill:#12ab4a;fill-opacity:1;fill-rule:nonzero;stroke:none"
             d="m 1060.58,766.035 c 0.09,4.293 131.4,-120.773 96.88,-206.676 -16.99,-42.25 -100.17,53.129 -96.88,206.676" /><path
             id="path214"
             style="fill:none;stroke:#231f20;stroke-width:10;stroke-linecap:butt;stroke-linejoin:miter;stroke-miterlimit:4;stroke-dasharray:none;stroke-opacity:1"
             d="m 1060.58,766.035 c 0.09,4.293 131.4,-120.773 96.88,-206.676 -16.99,-42.25 -100.17,53.129 -96.88,206.676 z" /><path
             id="path216"
             style="fill:#12ab4a;fill-opacity:1;fill-rule:nonzero;stroke:none"
             d="m 1017.01,702.219 c 1.05,4.152 86.99,-128.617 47.54,-212.328 -19.42,-41.18 -84.663,67.308 -47.54,212.328" /><path
             id="path218"
             style="fill:none;stroke:#231f20;stroke-width:10;stroke-linecap:butt;stroke-linejoin:miter;stroke-miterlimit:4;stroke-dasharray:none;stroke-opacity:1"
             d="m 1017.01,702.219 c 1.05,4.152 86.99,-128.617 47.54,-212.328 -19.42,-41.18 -84.663,67.308 -47.54,212.328 z" /><path
             id="path220"
             style="fill:#12ab4a;fill-opacity:1;fill-rule:nonzero;stroke:none"
             d="m 945.23,643.75 c 1.067,4.141 83.95,-139.48 30.774,-215.129 -8.852,-12.59 -75.18,42 -30.774,215.129" /><path
             id="path222"
             style="fill:none;stroke:#231f20;stroke-width:10;stroke-linecap:butt;stroke-linejoin:miter;stroke-miterlimit:4;stroke-dasharray:none;stroke-opacity:1"
             d="m 945.23,643.75 c 1.067,4.141 83.95,-139.48 30.774,-215.129 -8.852,-12.59 -75.18,42 -30.774,215.129 z" /><path
             id="path224"
             style="fill:#12ab4a;fill-opacity:1;fill-rule:nonzero;stroke:none"
             d="m 1151.71,1133.17 c -1.47,4.03 166.18,-64.23 165.45,-156.963 -0.36,-45.613 -112.47,12.672 -165.45,156.963" /><path
             id="path226"
             style="fill:none;stroke:#231f20;stroke-width:10;stroke-linecap:butt;stroke-linejoin:miter;stroke-miterlimit:4;stroke-dasharray:none;stroke-opacity:1"
             d="m 1151.71,1133.17 c -1.47,4.03 166.18,-64.23 165.45,-156.963 -0.36,-45.613 -112.47,12.672 -165.45,156.963 z" /><path
             id="path228"
             style="fill:#12ab4a;fill-opacity:1;fill-rule:nonzero;stroke:none"
             d="m 1077.09,1254.25 c -2.34,3.6 176.08,-25.73 195.85,-116.4 9.72,-44.59 -112.39,-12.64 -195.85,116.4" /><path
             id="path230"
             style="fill:none;stroke:#231f20;stroke-width:10;stroke-linecap:butt;stroke-linejoin:miter;stroke-miterlimit:4;stroke-dasharray:none;stroke-opacity:1"
             d="m 1077.09,1254.25 c -2.34,3.6 176.08,-25.73 195.85,-116.4 9.72,-44.59 -112.39,-12.64 -195.85,116.4 z" /><path
             id="path232"
             style="fill:#12ab4a;fill-opacity:1;fill-rule:nonzero;stroke:none"
             d="m 1012.32,1374.96 c -2.61,3.4 177.49,-11.92 204.22,-100.78 13.14,-43.72 -111.03,-21.39 -204.22,100.78" /><path
             id="path234"
             style="fill:none;stroke:#231f20;stroke-width:10;stroke-linecap:butt;stroke-linejoin:miter;stroke-miterlimit:4;stroke-dasharray:none;stroke-opacity:1"
             d="m 1012.32,1374.96 c -2.61,3.4 177.49,-11.92 204.22,-100.78 13.14,-43.72 -111.03,-21.39 -204.22,100.78 z" /><path
             id="path236"
             style="fill:#12ab4a;fill-opacity:1;fill-rule:nonzero;stroke:none"
             d="m 1218.34,1506.24 c 1.66,3.95 78.12,-160.66 14.51,-227.69 -31.3,-32.96 -73.83,86.31 -14.51,227.69" /><path
             id="path238"
             style="fill:none;stroke:#231f20;stroke-width:10;stroke-linecap:butt;stroke-linejoin:miter;stroke-miterlimit:4;stroke-dasharray:none;stroke-opacity:1"
             d="m 1218.34,1506.24 c 1.66,3.95 78.12,-160.66 14.51,-227.69 -31.3,-32.96 -73.83,86.31 -14.51,227.69 z" /><path
             id="path240"
             style="fill:#12ab4a;fill-opacity:1;fill-rule:nonzero;stroke:none"
             d="m 1303.3,1372.83 c 1.95,3.81 65.53,-166.19 -3.06,-228.06 -33.75,-30.44 -66.98,91.75 3.06,228.06" /><path
             id="path242"
             style="fill:none;stroke:#231f20;stroke-width:10;stroke-linecap:butt;stroke-linejoin:miter;stroke-miterlimit:4;stroke-dasharray:none;stroke-opacity:1"
             d="m 1303.3,1372.83 c 1.95,3.81 65.53,-166.19 -3.06,-228.06 -33.75,-30.44 -66.98,91.75 3.06,228.06 z" /><path
             id="path244"
             style="fill:#12ab4a;fill-opacity:1;fill-rule:nonzero;stroke:none"
             d="m 1371.79,1206.7 c 2.49,3.48 41.09,-173.85 -35.7,-225.141 -37.76,-25.231 -53.16,100.421 35.7,225.141" /><path
             id="path246"
             style="fill:none;stroke:#231f20;stroke-width:10;stroke-linecap:butt;stroke-linejoin:miter;stroke-miterlimit:4;stroke-dasharray:none;stroke-opacity:1"
             d="m 1371.79,1206.7 c 2.49,3.48 41.09,-173.85 -35.7,-225.141 -37.76,-25.231 -53.16,100.421 35.7,225.141 z" /><path
             id="path248"
             style="fill:#12ab4a;fill-opacity:1;fill-rule:nonzero;stroke:none"
             d="m 1428.42,1020.6 c -17.49,-15.99 16.21,-152.823 -109.08,-199.702 -42.54,-15.918 0.19,100.122 109.08,199.702" /><path
             id="path250"
             style="fill:none;stroke:#231f20;stroke-width:10;stroke-linecap:butt;stroke-linejoin:miter;stroke-miterlimit:4;stroke-dasharray:none;stroke-opacity:1"
             d="m 1428.42,1020.6 c -17.49,-15.99 16.21,-152.823 -109.08,-199.702 -42.54,-15.918 0.19,100.122 109.08,199.702 z" /><path
             id="path252"
             style="fill:#12ab4a;fill-opacity:1;fill-rule:nonzero;stroke:none"
             d="m 1437.13,845.57 c 3.78,1.981 -61.06,-182.761 -181.78,-163.05 3.64,-0.59 -11.68,61.992 181.78,163.05" /><path
             id="path254"
             style="fill:none;stroke:#231f20;stroke-width:10;stroke-linecap:butt;stroke-linejoin:miter;stroke-miterlimit:4;stroke-dasharray:none;stroke-opacity:1"
             d="m 1437.13,845.57 c 3.78,1.981 -61.06,-182.761 -181.78,-163.05 3.64,-0.59 -11.68,61.992 181.78,163.05 z" /><path
             id="path256"
             style="fill:#12ab4a;fill-opacity:1;fill-rule:nonzero;stroke:none"
             d="m 1413.97,680.988 c 4.24,0.571 -119.17,-150.976 -226.26,-91.429 3.21,-1.797 9.91,62.222 226.26,91.429" /><path
             id="path258"
             style="fill:none;stroke:#231f20;stroke-width:10;stroke-linecap:butt;stroke-linejoin:miter;stroke-miterlimit:4;stroke-dasharray:none;stroke-opacity:1"
             d="m 1413.97,680.988 c 4.24,0.571 -119.17,-150.976 -226.26,-91.429 3.21,-1.797 9.91,62.222 226.26,91.429 z" /><path
             id="path260"
             style="fill:#12ab4a;fill-opacity:1;fill-rule:nonzero;stroke:none"
             d="m 1354.9,565 c 4.27,-0.211 -144.6,-126.648 -239.2,-48.602 2.85,-2.347 21.01,59.34 239.2,48.602" /><path
             id="path262"
             style="fill:none;stroke:#231f20;stroke-width:10;stroke-linecap:butt;stroke-linejoin:miter;stroke-miterlimit:4;stroke-dasharray:none;stroke-opacity:1"
             d="m 1354.9,565 c 4.27,-0.211 -144.6,-126.648 -239.2,-48.602 2.85,-2.347 21.01,59.34 239.2,48.602 z" /><path
             id="path264"
             style="fill:#12ab4a;fill-opacity:1;fill-rule:nonzero;stroke:none"
             d="m 1263.54,467.148 c 4.19,-0.816 -161.25,-104.5 -243.79,-13.699 2.48,-2.73 29.28,55.68 243.79,13.699" /><path
             id="path266"
             style="fill:none;stroke:#231f20;stroke-width:10;stroke-linecap:butt;stroke-linejoin:miter;stroke-miterlimit:4;stroke-dasharray:none;stroke-opacity:1"
             d="m 1263.54,467.148 c 4.19,-0.816 -161.25,-104.5 -243.79,-13.699 2.48,-2.73 29.28,55.68 243.79,13.699 z" /><path
             id="path268"
             style="fill:#12ab4a;fill-opacity:1;fill-rule:nonzero;stroke:none"
             d="m 1176.83,372.699 c 4.05,-1.418 -174.72,-79.859 -243.318,21.949 2.07,-3.058 37.031,50.813 243.318,-21.949" /><path
             id="path270"
             style="fill:none;stroke:#231f20;stroke-width:10;stroke-linecap:butt;stroke-linejoin:miter;stroke-miterlimit:4;stroke-dasharray:none;stroke-opacity:1"
             d="m 1176.83,372.699 c 4.05,-1.418 -174.72,-79.859 -243.318,21.949 2.07,-3.058 37.031,50.813 243.318,-21.949 z" /></g></g></g></g></svg>